<?xml version="1.0" standalone="no"?>
<!DOCTYPE svg PUBLIC "-//W3C//DTD SVG 1.1//EN" "http://www.w3.org/Graphics/SVG/1.1/DTD/svg11.dtd" >
<svg xmlns="http://www.w3.org/2000/svg">
<metadata>Generated by IcoMoon</metadata>
<defs>
<font id="icomoon" horiz-adv-x="1024">
<font-face units-per-em="1024" ascent="960" descent="-64" />
<missing-glyph horiz-adv-x="1024" />
<glyph unicode="&#x20;" horiz-adv-x="512" d="" />
<glyph unicode="&#xe900;" glyph-name="angle-down" d="M512 234.667c-15.036-0.026-29.926 2.982-43.823 8.858-13.892 5.871-26.513 14.494-37.133 25.365l-303.044 309.719 80.957 82.724 303.043-309.658 303.044 309.658 80.956-82.724-303.044-309.66c-10.615-10.884-23.236-19.516-37.129-25.399s-28.787-8.9-43.827-8.883z" />
<glyph unicode="&#xe901;" glyph-name="angle-left" d="M714.765-63.731l-421.246 421.248c-23.997 24.004-37.477 56.555-37.477 90.496s13.48 66.492 37.477 90.495l420.99 420.992 60.331-60.331-420.99-420.991c-7.999-8-12.492-18.854-12.492-30.165 0-11.315 4.493-22.165 12.492-30.165l421.246-421.248-60.331-60.331z" />
<glyph unicode="&#xe902;" glyph-name="angle-right" d="M316.245-64.026l-60.245 60.245 421.589 421.589c8 8 12.493 18.854 12.493 30.165 0 11.315-4.493 22.165-12.493 30.165l-420.864 420.78 60.331 60.331 420.779-420.779c23.996-24.005 37.478-56.556 37.478-90.497s-13.483-66.492-37.478-90.496l-421.589-421.504z" />
<glyph unicode="&#xe903;" glyph-name="angle-up" d="M512 661.333c15.036 0.026 29.926-2.983 43.823-8.857 13.892-5.873 26.513-14.494 37.133-25.368l303.044-309.72-80.956-82.722-303.044 309.659-303.043-309.659-80.957 82.722 303.044 309.661c10.615 10.884 23.236 19.516 37.129 25.399s28.787 8.902 43.827 8.884z" />
<glyph unicode="&#xe904;" glyph-name="arrow-right" d="M986.624 538.497l-195.669 195.669-60.331-60.331 181.845-181.889-912.469-1.28v-85.333l915.029 1.28-184.448-184.448 60.331-60.331 195.712 195.669c23.923 24.043 37.355 56.58 37.355 90.496 0 33.92-13.431 66.453-37.355 90.497z" />
<glyph unicode="&#xe905;" glyph-name="calendar" d="M896 874.667h-128v85.333h-85.333v-85.333h-341.333v85.333h-85.333v-85.333h-128c-33.948 0-66.505-13.486-90.51-37.49s-37.49-56.562-37.49-90.51v-810.667h1024v810.667c0 33.948-13.487 66.505-37.491 90.51s-56.563 37.49-90.509 37.49zM85.333 746.667c0 11.316 4.495 22.168 12.497 30.17s18.854 12.497 30.17 12.497h768c11.315 0 22.17-4.495 30.17-12.497s12.497-18.854 12.497-30.17v-128h-853.333v128zM85.333 21.333v512h853.333v-512h-853.333zM725.333 405.333h-85.333v-85.333h85.333v85.333zM554.667 405.333h-85.333v-85.333h85.333v85.333zM384 405.333h-85.333v-85.333h85.333v85.333zM725.333 234.667h-85.333v-85.333h85.333v85.333zM554.667 234.667h-85.333v-85.333h85.333v85.333zM384 234.667h-85.333v-85.333h85.333v85.333z" />
<glyph unicode="&#xe906;" glyph-name="check" d="M382.306 268.877l515.043 515.040 78.379-78.38-593.421-593.421-316.305 316.305 78.38 78.379 237.926-237.922z" />
<glyph unicode="&#xe907;" glyph-name="close" d="M180.125 176.499l603.397 603.398 60.339-60.34-603.397-603.398-60.34 60.339zM783.543 116.169l-603.4 603.396 60.34 60.34 603.399-603.396-60.339-60.339z" />
<glyph unicode="&#xe908;" glyph-name="compare-off" d="M896 960c-33.946 0-66.505-13.486-90.509-37.49s-37.491-56.562-37.491-90.51v-768c0-33.946 13.487-66.505 37.491-90.509s56.563-37.491 90.509-37.491c33.946 0 66.505 13.487 90.509 37.491s37.491 56.563 37.491 90.509v768c0 33.948-13.487 66.505-37.491 90.51s-56.563 37.49-90.509 37.49v0zM938.667 64c0-11.315-4.497-22.17-12.497-30.17s-18.854-12.497-30.17-12.497c-11.315 0-22.17 4.497-30.17 12.497s-12.497 18.854-12.497 30.17v768c0 11.316 4.497 22.168 12.497 30.17s18.854 12.497 30.17 12.497c11.315 0 22.17-4.495 30.17-12.497s12.497-18.854 12.497-30.17v-768zM512 448c-33.946 0-66.505-13.487-90.51-37.491s-37.49-56.563-37.49-90.509v-256c0-33.946 13.486-66.505 37.49-90.509s56.564-37.491 90.51-37.491c33.946 0 66.505 13.487 90.509 37.491s37.491 56.563 37.491 90.509v256c0 33.946-13.487 66.505-37.491 90.509s-56.563 37.491-90.509 37.491zM554.667 64c0-11.315-4.497-22.17-12.497-30.17s-18.854-12.497-30.17-12.497c-11.315 0-22.17 4.497-30.17 12.497s-12.497 18.854-12.497 30.17v256c0 11.315 4.497 22.17 12.497 30.17s18.854 12.497 30.17 12.497c11.315 0 22.17-4.497 30.17-12.497s12.497-18.854 12.497-30.17v-256zM128 704c-33.948 0-66.505-13.486-90.51-37.49s-37.49-56.562-37.49-90.51v-512c0-33.946 13.486-66.505 37.49-90.509s56.562-37.491 90.51-37.491c33.948 0 66.505 13.487 90.51 37.491s37.49 56.563 37.49 90.509v512c0 33.948-13.486 66.505-37.49 90.51s-56.562 37.49-90.51 37.49zM170.667 64c0-11.315-4.495-22.17-12.497-30.17s-18.854-12.497-30.17-12.497c-11.316 0-22.168 4.497-30.17 12.497s-12.497 18.854-12.497 30.17v512c0 11.316 4.495 22.168 12.497 30.17s18.854 12.497 30.17 12.497c11.316 0 22.168-4.495 30.17-12.497s12.497-18.854 12.497-30.17v-512z" />
<glyph unicode="&#xe909;" glyph-name="compare-on" d="M128 704c-33.948 0-66.505-13.486-90.51-37.49s-37.49-56.562-37.49-90.51v-512c0-33.946 13.486-66.505 37.49-90.509s56.562-37.491 90.51-37.491c33.948 0 66.505 13.487 90.51 37.491s37.49 56.563 37.49 90.509v512c0 33.948-13.486 66.505-37.49 90.51s-56.562 37.49-90.51 37.49zM512 448c-33.946 0-66.505-13.487-90.51-37.491s-37.49-56.563-37.49-90.509v-256c0-33.946 13.486-66.505 37.49-90.509s56.564-37.491 90.51-37.491c33.946 0 66.505 13.487 90.509 37.491s37.491 56.563 37.491 90.509v256c0 33.946-13.487 66.505-37.491 90.509s-56.563 37.491-90.509 37.491zM896 960c-33.946 0-66.505-13.486-90.509-37.49s-37.491-56.562-37.491-90.51v-768c0-33.946 13.487-66.505 37.491-90.509s56.563-37.491 90.509-37.491c33.946 0 66.505 13.487 90.509 37.491s37.491 56.563 37.491 90.509v768c0 33.948-13.487 66.505-37.491 90.51s-56.563 37.49-90.509 37.49z" />
<glyph unicode="&#xe90a;" glyph-name="facebook" d="M682.539 789.973h93.483v162.816c-16.128 2.219-71.595 7.211-136.192 7.211-295.765 0-215.296-334.933-227.072-384h-148.779v-182.016h148.736v-457.984h182.357v457.941h142.72l22.656 182.016h-165.419c8.021 120.491-32.469 214.016 87.509 214.016z" />
<glyph unicode="&#xe90b;" glyph-name="favorite" d="M213.332 469.332c0-449.695-4.024-442.409 172.396-311.974l126.272 93.356 126.272-93.356c176.42-130.435 172.396-137.72 172.396 311.974v405.335h-597.335v-405.335zM725.332 505.388c0-272.379-3.177-281.070-78.026-213.332-98.685 89.308-171.927 89.308-270.612 0-74.849-67.738-78.026-59.046-78.026 213.332v283.945h426.665v-283.945z" />
<glyph unicode="&#xe90c;" glyph-name="grid" d="M469.333 789.333h42.667v-640h-42.667v640zM810.667 490.667v-42.667h-640v42.667h640z" />
<glyph unicode="&#xe90d;" glyph-name="heart" d="M746.667 920.833c-48.047-0.747-95.044-14.159-136.247-38.881s-75.153-59.878-98.419-101.919c-23.27 42.041-57.22 77.197-98.423 101.919s-88.2 38.134-136.245 38.881c-76.589-3.328-148.749-36.832-200.713-93.194s-79.511-130.999-76.62-207.606c0-289.068 467.458-622.935 487.34-637.1l24.661-17.451 24.661 17.451c19.883 14.080 487.339 348.032 487.339 637.1 2.889 76.607-24.657 151.244-76.621 207.606s-124.126 89.866-200.713 93.194zM512 70.528c-138.796 103.68-426.668 358.4-426.668 549.505-2.917 53.986 15.631 106.934 51.599 147.298s86.437 64.868 140.401 68.169c53.963-3.3 104.433-27.805 140.401-68.169s54.515-93.312 51.601-147.298h85.333c-2.918 53.986 15.629 106.934 51.597 147.298s86.438 64.868 140.403 68.169c53.961-3.3 104.431-27.805 140.399-68.169s54.515-93.312 51.601-147.298c0-191.191-287.872-445.825-426.667-549.505z" />
<glyph unicode="&#xe90e;" glyph-name="history" d="M512 960c-16.568 0-30-13.432-30-30s13.432-30 30-30c249.235 0 452-202.766 452-452s-202.765-452-452-452c-249.234 0-452 202.765-452 452 0 120.714 50.74 237.264 138.034 322.072v-52.072c0-16.568 13.432-30 30-30s29.966 13.432 29.966 30v120c0 16.568-13.398 30-29.966 30h-121.034c-16.568 0-30.001-13.432-30.001-30s13.432-29.8 30.001-29.8h44.024c-97.008-96.844-151.024-226.358-151.024-360.2 0-281.478 230.418-512 512-512 281.478 0 512 230.419 512 512 0 281.48-230.419 512-512 512zM512 778c-181.95 0-330-148.098-330-330 0-181.965 148.11-329.997 330-329.997 181.952 0 329.997 148.096 329.997 329.997 0 181.962-148.109 330-329.997 330zM722.861 279.565l-19.942 19.942c-11.712 11.718-30.707 11.718-42.426 0-11.712-11.718-11.712-30.707 0-42.426l19.942-19.942c-38.848-31.091-86.435-51.686-138.435-57.466v28.326c0 16.57-13.432 30.003-30 30.003s-30-13.434-30-30.003v-28.326c-52 5.779-99.584 26.374-138.432 57.466l19.94 19.942c11.716 11.718 11.716 30.707 0 42.426-11.714 11.718-30.71 11.718-42.426 0l-19.94-19.942c-31.094 38.848-51.692 86.435-57.466 138.435h28.324c16.568 0 30 13.432 30 30s-13.432 30-30 30h-28.324c5.776 52 26.372 99.584 57.466 138.432l19.94-19.94c11.714-11.716 30.712-11.716 42.426 0 11.716 11.716 11.716 30.71 0 42.426l-19.94 19.94c38.848 31.094 86.432 51.69 138.432 57.466v-28.324c0-16.568 13.432-30 30-30s30 13.432 30 30v28.324c52-5.776 99.587-26.372 138.435-57.466l-19.942-19.94c-11.718-11.716-11.718-30.71 0-42.426 11.712-11.716 30.714-11.716 42.426 0l19.936 19.94c31.098-38.848 51.693-86.432 57.472-138.432h-28.326c-16.57 0-30.003-13.432-30.003-30s13.434-29.8 30.003-29.8h28.326c-5.779-52-26.374-99.788-57.466-138.636zM593.215 409.213l-51.214 51.212v107.574c0 16.568-13.432 30-30.001 30s-30-13.432-30-30v-120.001c0-7.956 3.162-15.586 8.788-21.212l60.001-60.001c11.714-11.716 30.712-11.716 42.426 0 11.716 11.716 11.716 30.71 0 42.426z" />
<glyph unicode="&#xe90f;" glyph-name="insta" d="M512.013 959.506c-209.714 0-408.859 18.641-484.925-176.423-31.42-80.564-26.857-185.194-26.857-335.011 0-131.465-4.216-255.027 26.857-334.955 75.892-195.179 276.654-176.482 484.81-176.482 200.819 0 407.876-20.89 484.868 176.482 31.475 81.374 26.854 184.444 26.854 334.955 0 199.795 11.034 328.779-85.939 425.618-98.189 98.108-230.972 85.816-425.899 85.816h0.23zM466.155 867.342c437.449 0.692 493.124 49.285 462.4-625.759-10.918-238.75-192.849-212.548-416.486-212.548-407.76 0-419.484 11.657-419.484 419.268 0 412.345 32.343 418.808 373.571 419.154v-0.115zM785.203 782.449c-33.903 0-61.397-27.471-61.397-61.347s27.494-61.347 61.397-61.347c33.903 0 61.393 27.47 61.393 61.347s-27.49 61.347-61.393 61.347zM512.013 710.714c-145.143 0-262.793-117.615-262.793-262.642 0-145.028 117.65-262.583 262.793-262.583s262.733 117.555 262.733 262.583c0 145.027-117.589 262.642-262.733 262.642zM512.013 618.55c225.54 0 225.826-340.957 0-340.957-225.482 0-225.829 340.957 0 340.957z" />
<glyph unicode="&#xe910;" glyph-name="menu" d="M877.714 685.714v73.143h-731.429v-73.143h731.429zM877.714 539.429v-73.143h-731.429v73.143h731.429zM877.714 320v-73.143h-731.429v73.143h731.429z" />
<glyph unicode="&#xe911;" glyph-name="ok" d="M511.991 405.854c153.020 0 277.073 124.049 277.073 277.073s-124.049 277.073-277.073 277.073c-153.027 0-277.075-124.050-277.075-277.075 0.188-152.945 124.128-276.884 277.075-277.071zM511.991 832.119c82.394 0 149.193-66.796 149.193-149.194s-66.795-149.194-149.193-149.194c-82.402 0-149.196 66.795-149.196 149.194s66.799 149.194 149.196 149.194zM783.403 274.564c30.11 19.836 48.256 53.461 48.299 89.519 0.418 29.922-16.469 57.399-43.354 70.545-27.622 13.798-60.685 10.692-85.252-8.013-113.86-83.008-268.292-83.008-382.15 0-24.605 18.607-57.612 21.709-85.254 8.013-26.873-13.141-43.767-40.589-43.393-70.502 0.064-36.049 18.201-69.666 48.297-89.515 38.612-25.681 80.661-45.773 124.897-59.682 7.503-2.33 15.246-4.489 23.232-6.477l-128.817-125.965c-33.792-32.785-34.609-86.758-1.822-120.55s86.759-34.611 120.553-1.822c0.704 0.683 1.395 1.374 2.074 2.082l131.293 135.893 131.546-136.149c32.759-33.818 86.733-34.679 120.55-1.92s34.679 86.733 1.92 120.555c-0.687 0.704-1.382 1.399-2.095 2.086l-128.606 125.833c7.987 2.048 15.761 4.22 23.317 6.524 44.19 13.854 86.199 33.903 124.766 59.546z" />
<glyph unicode="&#xe912;" glyph-name="pause" d="M426.667-64h-298.667v1024h298.667v-1024zM213.333 21.333h128v853.333h-128v-853.333zM896-64h-298.667v1024h298.667v-1024zM682.667 21.333h128v853.333h-128v-853.333z" />
<glyph unicode="&#xe913;" glyph-name="search" d="M1011.49 8.798l-254.677 254.677c69.402 84.881 103.526 193.19 95.309 302.527-8.213 109.335-58.138 211.329-139.443 284.887-81.31 73.558-187.776 113.051-297.386 110.31-109.609-2.741-213.971-47.505-291.5-125.034s-122.294-181.891-125.034-291.5c-2.741-109.611 36.752-216.077 110.31-297.382 73.558-81.31 175.552-131.234 284.887-139.447s217.645 25.907 302.526 95.309l254.677-254.677c8.047-7.77 18.825-12.070 30.012-11.972 11.187 0.094 21.888 4.582 29.798 12.493s12.399 18.611 12.497 29.798c0.094 11.187-4.207 21.965-11.977 30.012zM426.657 191.966c-67.509 0-133.503 20.019-189.635 57.527-56.132 37.504-99.881 90.816-125.716 153.186s-32.594 131-19.424 197.212c13.17 66.212 45.679 127.032 93.416 174.769s108.556 80.245 174.768 93.415c66.212 13.171 134.841 6.411 197.211-19.424 62.374-25.835 115.682-69.584 153.186-125.716 37.508-56.132 57.527-122.125 57.527-189.636-0.102-90.496-36.096-177.254-100.087-241.246s-150.75-99.985-241.247-100.087z" />
<glyph unicode="&#xe914;" glyph-name="shopping-cart" d="M1024 832h-843.008l-1.792 14.976c-3.667 31.129-18.629 59.83-42.048 80.662s-53.669 32.347-85.013 32.362h-52.139v-85.333h52.139c10.45-0.001 20.537-3.838 28.346-10.783s12.799-16.513 14.022-26.892l67.627-574.635c3.667-31.13 18.629-59.831 42.048-80.661 23.419-20.834 53.669-32.35 85.013-32.363h564.139v85.333h-564.139c-10.457 0.004-20.549 3.844-28.359 10.799s-12.796 16.533-14.009 26.918l-5.589 47.616h690.432l92.331 512zM860.331 405.333h-629.12l-40.149 341.333h730.837l-61.568-341.333zM298.667-64c47.128 0 85.333 38.204 85.333 85.333s-38.205 85.333-85.333 85.333c-47.128 0-85.333-38.204-85.333-85.333s38.205-85.333 85.333-85.333zM725.333-64c47.13 0 85.333 38.204 85.333 85.333s-38.204 85.333-85.333 85.333c-47.13 0-85.333-38.204-85.333-85.333s38.204-85.333 85.333-85.333z" />
<glyph unicode="&#xe915;" glyph-name="smartphone" d="M640 960h-256c-56.559-0.068-110.781-22.566-150.775-62.559s-62.491-94.216-62.559-150.775v-597.333c0.068-56.559 22.566-110.78 62.559-150.775 39.993-39.991 94.216-62.49 150.775-62.558h256c56.559 0.068 110.78 22.566 150.775 62.558 39.991 39.996 62.49 94.217 62.558 150.775v597.333c-0.068 56.559-22.566 110.781-62.558 150.775-39.996 39.993-94.217 62.491-150.775 62.559v0zM384 874.667h256c33.946 0 66.505-13.486 90.509-37.49s37.491-56.562 37.491-90.51v-469.333h-512v469.333c0 33.948 13.486 66.505 37.49 90.51s56.562 37.49 90.51 37.49zM640 21.333h-256c-33.948 0-66.505 13.487-90.51 37.491s-37.49 56.563-37.49 90.509v42.667h512v-42.667c0-33.946-13.487-66.505-37.491-90.509s-56.563-37.491-90.509-37.491zM512 64c23.565 0 42.667 19.102 42.667 42.667s-19.102 42.667-42.667 42.667c-23.565 0-42.667-19.102-42.667-42.667s19.102-42.667 42.667-42.667z" />
<glyph unicode="&#xe916;" glyph-name="table" d="M128 746.667h128v-42.667h-128v42.667zM341.333 746.667h554.667v-42.667h-554.667v42.667zM128 490.667h128v-42.667h-128v42.667zM341.333 490.667h554.667v-42.667h-554.667v42.667zM128 234.667h128v-42.667h-128v42.667zM341.333 234.667h554.667v-42.667h-554.667v42.667z" />
<glyph unicode="&#xe917;" glyph-name="telegram" d="M401.8 312.26l-16.939-238.251c24.235 0 34.731 10.411 47.318 22.912l113.621 108.587 235.435-172.416c43.179-24.064 73.6-11.392 85.248 39.723l154.539 724.138 0.043 0.043c13.696 63.829-23.083 88.789-65.152 73.131l-908.374-347.776c-61.995-24.064-61.056-58.624-10.539-74.283l232.235-72.235 539.436 337.536c25.387 16.811 48.469 7.509 29.483-9.301l-436.353-391.808z" />
<glyph unicode="&#xe918;" glyph-name="user" d="M512 448c50.633 0 100.126 15.014 142.225 43.145s74.914 68.111 94.289 114.889c19.375 46.778 24.444 98.251 14.566 147.91s-34.257 95.274-70.063 131.076c-35.802 35.802-81.417 60.184-131.076 70.062-49.655 9.878-101.129 4.808-147.908-14.568s-86.76-52.188-114.889-94.287-43.144-91.594-43.144-142.226c0.068-67.875 27.061-132.95 75.055-180.945s113.071-74.987 180.945-75.055zM512 874.667c33.754 0 66.752-10.010 94.818-28.762s49.941-45.408 62.857-76.593c12.919-31.185 16.299-65.501 9.711-98.607-6.583-33.106-22.839-63.516-46.707-87.384s-54.276-40.122-87.381-46.708c-33.109-6.586-67.422-3.206-98.607 9.712-31.187 12.917-57.841 34.792-76.594 62.858s-28.762 61.062-28.762 94.817c0 45.263 17.981 88.673 49.987 120.679s75.415 49.987 120.68 49.987zM512 362.667c-101.809-0.111-199.415-40.606-271.404-112.597-71.989-71.987-112.483-169.596-112.596-271.403 0-11.315 4.495-22.17 12.497-30.17s18.854-12.497 30.17-12.497c11.316 0 22.168 4.497 30.17 12.497s12.497 18.854 12.497 30.17c0 79.211 31.467 155.179 87.477 211.187 56.011 56.013 131.979 87.479 211.189 87.479s155.179-31.467 211.187-87.479c56.013-56.009 87.479-131.977 87.479-211.187 0-11.315 4.497-22.17 12.497-30.17s18.854-12.497 30.17-12.497c11.315 0 22.17 4.497 30.17 12.497s12.497 18.854 12.497 30.17c-0.111 101.807-40.606 199.415-112.597 271.403-71.987 71.991-169.596 112.486-271.403 112.597z" />
<glyph unicode="&#xe919;" glyph-name="viber" d="M871.428 835.888c-23.91 21.982-120.708 92.362-336.478 93.326 0 0-254.333 15.426-378.318-98.34-69.031-69.030-93.327-169.877-95.833-295.212-2.507-125.14-5.785-359.807 220.397-423.44h0.193l-0.193-96.99c0 0-1.35-39.334 24.489-47.241 31.238-9.643 49.748 20.245 79.636 52.446 16.39 17.741 38.95 43.58 56.113 63.441 154.645-12.919 273.617 16.772 287.113 21.21 31.236 10.219 208.055 32.781 236.787 267.443 29.696 241.417-14.46 394.326-93.905 463.357zM897.651 389.5c-24.294-195.908-167.561-208.247-193.98-216.73-11.183-3.665-115.695-29.696-247.198-21.018 0 0-97.955-118.204-128.421-148.86-4.82-4.821-10.412-6.75-14.076-5.786-5.206 1.348-6.749 7.518-6.556 16.58 0 13.111 0.771 161.395 0.771 161.395-0.193 0-0.193 0 0 0-191.473 53.026-180.29 252.791-178.169 357.299 2.121 104.512 21.789 190.319 80.215 247.973 104.703 94.869 320.86 80.793 320.86 80.793 182.409-0.771 269.76-55.726 290.005-74.044 67.294-57.847 101.615-195.716 76.548-397.604zM623.804 528.683c-6.362 0-11.759 5.012-12.147 11.567-2.121 41.457-21.594 61.704-61.316 63.825-6.75 0.386-11.955 6.17-11.571 12.919 0.388 6.749 6.17 11.955 12.919 11.569 52.45-2.892 81.758-32.973 84.459-86.963 0.384-6.749-4.821-12.533-11.571-12.725-0.384-0.192-0.576-0.192-0.772-0.192zM686.315 507.878h-0.192c-6.75 0.196-12.147 5.786-11.955 12.535 0.964 41.649-10.991 75.394-36.442 103.16-25.263 27.767-60.16 42.807-106.249 46.085-6.746 0.579-11.759 6.363-11.183 13.112 0.58 6.749 6.366 11.762 13.111 11.184 52.062-3.857 93.137-21.982 122.445-53.99 29.5-32.202 43.772-72.502 42.807-120.131-0.192-6.746-5.786-11.955-12.343-11.955zM750.345 482.812c-6.75 0-12.151 5.397-12.151 12.147-0.576 74.621-21.982 131.505-65.557 174.118-42.999 42.036-97.57 63.439-161.779 64.017-6.75 0-12.147 5.592-12.147 12.34s5.589 12.148 12.147 12.148c70.767-0.579 130.927-24.296 178.556-70.959 47.821-46.663 72.307-111.066 73.079-191.281 0.192-6.942-5.205-12.531-12.147-12.531 0.192 0 0.192 0 0 0zM553.284 377.685c0 0 17.161-1.545 26.415 9.835l17.933 22.558c8.678 11.187 29.696 18.321 50.133 6.942 11.379-6.362 32.009-19.089 44.736-28.535 13.692-10.027 41.459-33.165 41.651-33.361 13.303-11.183 16.388-27.571 7.326-45.12 0 0 0-0.192 0-0.384-9.254-16.393-21.79-31.817-37.406-46.084-0.192 0-0.192-0.196-0.388-0.196-12.919-10.795-25.643-16.969-37.986-18.317-1.54-0.384-3.277-0.384-5.589-0.384-5.402 0-10.799 0.772-16.196 2.505l-0.388 0.58c-19.281 5.397-51.29 18.897-104.508 48.397-34.709 19.089-63.441 38.566-87.927 58.039-12.919 10.223-26.033 21.598-39.531 35.093-0.386 0.388-0.964 0.964-1.35 1.353-0.386 0.384-0.964 0.964-1.35 1.348-0.386 0.388-0.964 0.964-1.35 1.353-0.386 0.384-0.964 0.964-1.35 1.348-13.305 13.495-24.874 26.611-35.094 39.526-19.475 24.299-38.95 53.222-58.039 87.927-29.502 53.414-43 85.423-48.399 104.512l-0.579 0.386c-1.735 5.399-2.507 10.798-2.507 16.197 0 2.314 0 4.049 0.386 5.592 1.543 12.533 7.713 25.067 18.318 37.986 0 0.193 0.193 0.193 0.193 0.386 14.269 15.811 29.695 28.152 46.085 37.408 0 0 0.193 0 0.386 0 17.354 9.063 33.744 5.978 45.12-7.327 0 0 23.332-27.959 33.359-41.65 9.449-12.919 22.175-33.359 28.536-44.735 11.379-20.439 4.245-41.457-6.942-50.134l-22.559-17.932c-11.377-9.256-9.834-26.417-9.834-26.417s33.357-126.877 158.694-158.694z" />
<glyph unicode="&#xe91a;" glyph-name="vk" d="M849.707 404.139c-16.555 20.907-11.819 30.208 0 48.896 0.213 0.213 136.875 189.056 150.955 253.099l0.085 0.043c6.997 23.339 0 40.491-33.835 40.491h-111.957c-28.501 0-41.643-14.72-48.683-31.189 0 0-57.003-136.448-137.643-224.896-26.027-25.557-38.059-33.749-52.267-33.749-6.997 0-17.877 8.192-17.877 31.531v217.813c0 27.989-7.979 40.491-31.573 40.491h-176.043c-17.877 0-28.501-13.056-28.501-25.216 0-26.539 40.32-32.64 44.501-107.307v-162.005c0-35.499-6.443-42.027-20.736-42.027-38.059 0-130.432 137.003-185.173 293.803-11.051 30.421-21.845 42.709-50.56 42.709h-112c-31.957 0-38.4-14.72-38.4-31.189 0-29.099 38.059-173.781 176.981-364.928 92.587-130.475 222.976-201.173 341.589-201.173 71.296 0 80 15.701 80 42.709 0 124.672-6.443 136.448 29.269 136.448 16.555 0 45.056-8.192 111.616-71.125 76.075-74.624 88.576-108.032 131.157-108.032h111.957c31.915 0 48.085 15.701 38.784 46.677-21.291 65.152-165.163 199.168-171.648 208.128z" />
<glyph unicode="&#xe91b;" glyph-name="whatsapp" d="M845.205 786.348c-87.821 90.407-209.225 139.485-333.214 139.485-263.472 0-475.283-214.394-472.7-475.282 0-82.658 23.248-162.735 61.994-235.059l-67.16-245.393 250.557 64.576c69.743-38.746 147.232-56.828 224.728-56.828 260.89 0 472.7 214.396 472.7 475.285 0 126.57-49.079 245.391-136.905 333.215zM511.991 57.924c-69.743 0-139.485 18.082-198.896 54.242l-15.498 7.753-149.818-38.746 38.746 147.234-10.333 15.497c-113.655 183.398-59.41 426.206 126.57 539.861s426.205 59.41 539.86-126.57 59.409-426.206-126.571-539.861c-59.409-38.746-131.738-59.409-204.062-59.409zM739.302 344.644l-28.416 12.915c0 0-41.327 18.082-67.157 30.997-2.586 0-5.167 2.581-7.748 2.581-7.753 0-12.919-2.581-18.082-5.167 0 0-2.586-2.581-38.746-43.908-2.586-5.167-7.753-7.753-12.915-7.753h-2.586c-2.581 0-7.748 2.586-10.33 5.167l-12.915 5.167c-28.416 12.915-54.246 28.412-74.91 49.079-5.167 5.163-12.915 10.33-18.082 15.497-18.082 18.082-36.163 38.746-49.079 61.995l-2.583 5.167c-2.583 2.581-2.583 5.163-5.166 10.33 0 5.167 0 10.334 2.583 12.915 0 0 10.332 12.915 18.081 20.668 5.167 5.163 7.75 12.915 12.916 18.080 5.166 7.749 7.747 18.081 5.166 25.83-2.581 12.916-33.58 82.658-41.329 98.156-5.166 7.75-10.332 10.333-18.081 12.916h-7.75c-5.166 0-12.915 0-20.664 0-5.166 0-10.332-2.583-15.498-2.583l-2.583-2.583c-5.167-2.583-10.333-7.75-15.499-10.333-5.166-5.166-7.749-10.332-12.915-15.498-18.081-23.247-28.414-51.661-28.414-80.075 0-20.664 5.166-41.329 12.916-59.411l2.583-7.748c23.247-49.079 54.244-92.992 95.573-131.738l10.332-10.33c7.749-7.753 15.498-12.915 20.664-20.668 54.243-46.494 116.238-80.073 185.981-98.155 7.748-2.581 18.082-2.581 25.83-5.167 7.748 0 18.082 0 25.83 0 12.915 0 28.416 5.167 38.746 10.334 7.748 5.167 12.915 5.167 18.082 10.33l5.167 5.167c5.167 5.167 10.334 7.748 15.497 12.915 5.167 5.167 10.334 10.334 12.915 15.501 5.167 10.33 7.753 23.245 10.334 36.16 0 5.167 0 12.915 0 18.082 0 0-2.581 2.586-7.748 5.167z" />
<glyph unicode="&#xe91c;" glyph-name="emove" d="M810.001 405.999h-596.001v84.002h596.001v-84.002z" />
<glyph unicode="&#xe91d;" glyph-name="user-2" d="M727.394 465.165c-13.85-17.438-29.406-33.536-47.275-48.068 101.999-58.509 170.863-168.508 170.863-294.289 0-67.968-148.915-121.207-339.017-121.207s-339.017 53.239-339.017 121.207c0 125.781 68.862 235.78 170.863 294.289-17.868 14.532-33.426 30.63-47.277 48.068-113.591-71.731-189.202-198.374-189.202-342.357 0-43.618 23.883-104.405 137.669-146.3 70.976-26.133 165.786-40.525 266.964-40.525 101.18 0 195.989 14.391 266.965 40.525 113.783 41.894 137.668 102.682 137.668 146.3-0.004 143.983-75.614 270.626-189.205 342.357zM511.97 421.948c127.522 0 225.719 123.265 225.719 269.025 0 145.827-98.249 269.027-225.719 269.027-127.522 0-225.72-123.266-225.72-269.025 0-145.827 98.25-269.027 225.72-269.027zM511.97 894.385c88.282 0 160.102-91.249 160.102-203.41s-71.821-203.41-160.102-203.41c-88.28 0-160.105 91.249-160.105 203.41s71.824 203.41 160.105 203.41z" />
<glyph unicode="&#xe91e;" glyph-name="clock" d="M512 960c-282.979 0-512-228.994-512-512 0-282.982 228.994-512 512-512 282.982 0 512 228.992 512 512 0 282.984-228.992 512-512 512zM512 1.92c-245.969 0-446.078 200.111-446.078 446.080s200.109 446.078 446.078 446.078c245.969 0 446.080-200.109 446.080-446.078s-200.111-446.080-446.080-446.080zM512.021 821.5c-18.202 0-32.96-14.758-32.96-32.961v-328.524l-131.824-156.727c-11.718-13.935-9.923-34.726 4.008-46.443 13.932-11.721 34.728-9.92 46.442 4.006l139.563 165.926c4.992 5.939 7.735 13.457 7.735 21.218v340.544c-0.004 18.205-14.758 32.961-32.964 32.961z" />
</font>
</defs>
</svg>
